<svg id="Layer_5" enable-background="new 0 0 64 64" height="512" viewBox="0 0 64 64" width="512" xmlns="http://www.w3.org/2000/svg"><path d="m58 11h-32.356c-.681-.55-1.444-1.002-2.267-1.337.991-.914 1.623-2.212 1.623-3.663 0-2.757-2.243-5-5-5s-5 2.243-5 5c0 1.451.632 2.749 1.623 3.663-.823.335-1.586.787-2.267 1.337h-8.356c-2.757 0-5 2.243-5 5v32c0 2.757 2.243 5 5 5h15.613l-1.333 4h-4.28c-1.654 0-3 1.346-3 3v3h38v-3c0-1.654-1.346-3-3-3h-4.28l-1.333-4h15.613c2.757 0 5-2.243 5-5v-32c0-2.757-2.243-5-5-5zm3 5v29h-2v-28c0-1.103-.897-2-2-2h-28.525c-.252-.711-.583-1.384-.997-2h30.522c1.654 0 3 1.346 3 3zm-46 11.899v12.101c0 1.654 1.346 3 3 3 .771 0 1.468-.301 2-.78.532.48 1.229.78 2 .78 1.654 0 3-1.346 3-3v-12.101c2.279-.465 4-2.484 4-4.899v-5c0-.338-.022-.671-.059-1h15.059 13v28h-50v-28h4.059c-.037.329-.059.662-.059 1v5c0 2.414 1.721 4.434 4 4.899zm2-21.899c0-1.654 1.346-3 3-3s3 1.346 3 3-1.346 3-3 3-3-1.346-3-3zm3 5c3.859 0 7 3.14 7 7v5c0 1.302-.839 2.402-2 2.816v-10.816h-2v25c0 .551-.448 1-1 1s-1-.449-1-1v-16h-2v16c0 .551-.448 1-1 1s-1-.449-1-1v-25h-2v10.816c-1.161-.414-2-1.514-2-2.816v-5c0-3.86 3.141-7 7-7zm-14 2h6.522c-.413.616-.744 1.289-.997 2h-4.525c-1.103 0-2 .897-2 2v28h-2v-29c0-1.654 1.346-3 3-3zm43 47v1h-34v-1c0-.551.448-1 1-1h32c.552 0 1 .449 1 1zm-7.387-3h-19.226l1.333-4h16.56zm16.387-6h-52c-1.654 0-3-1.346-3-3v-1h58v1c0 1.654-1.346 3-3 3z"/><path d="m44 39c3.859 0 7-3.14 7-7v-4c0-3.86-3.141-7-7-7-1.384 0-2.722.403-3.871 1.167l1.107 1.666c.82-.545 1.776-.833 2.764-.833 2.757 0 5 2.243 5 5v4c0 2.757-2.243 5-5 5s-5-2.243-5-5v-4c0-1.152.381-2.234 1.101-3.129l-1.559-1.254c-.994 1.236-1.542 2.793-1.542 4.383v4c0 3.86 3.141 7 7 7z"/><path d="m47 29v-1c0-1.654-1.346-3-3-3s-3 1.346-3 3v4c0 1.654 1.346 3 3 3s3-1.346 3-3v-1h-2v1c0 .551-.448 1-1 1s-1-.449-1-1v-4c0-.551.448-1 1-1s1 .449 1 1v1z"/><path d="m33 28v4c0 6.065 4.935 11 11 11s11-4.935 11-11v-4c0-6.065-4.935-11-11-11s-11 4.935-11 11zm11-9c4.963 0 9 4.038 9 9v4c0 4.962-4.037 9-9 9s-9-4.038-9-9v-4c0-4.962 4.037-9 9-9z"/></svg>